# xmcd CD database file
# Generated: Fri Jul 12 19:54:54 2002 by KSCD
# 
# Track frame offsets:
#       150
#       25285
#       38805
#       65560
#       78420
#       91655
#       103000
#       117605
#       131442
#       142075
#       153665
#       164417
#       177492
#       188260
#       202235
#       219360
#
# Disc length: 3068 seconds
#
# Revision: 2
# Processed by: cddbd v1.4PL0 Copyright (c) Steve Scherf et al.
# Submitted via: Kscd 1.3.2
#
DISCID=e40bfa10
DTITLE=Various Artist - Western Movie Themes
DYEAR=1900
DGENRE=
TTITLE0=Claudia's Theme
TTITLE1=Rio Bravo
TTITLE2=Blaze Of Glory
TTITLE3=Shane
TTITLE4=Veracruz
TTITLE5=The Virginian
TTITLE6=A Professional Gun
TTITLE7=High Plains Drifter
TTITLE8=Bonanza
TTITLE9=The Man From Laramie
TTITLE10=Tara's Theme
TTITLE11=Raindrops Keep Falling On My Head
TTITLE12=Knockin' On Heavens Door
TTITLE13=Winnetou Melodie
TTITLE14=Der Mit Dem Wolf Tanzt
TTITLE15=Riders In The Sky
EXTD=
EXTT0=
EXTT1=
EXTT2=
EXTT3=
EXTT4=
EXTT5=
EXTT6=
EXTT7=
EXTT8=
EXTT9=
EXTT10=
EXTT11=
EXTT12=
EXTT13=
EXTT14=
EXTT15=
PLAYORDER=
